<svg xmlns="http://www.w3.org/2000/svg" version="1.0" width="3464.000000pt" height="3464.000000pt" viewBox="-3 -3 3470 3470" preserveAspectRatio="xMidYMid meet"><g id="deeditor_bgCarrier" stroke-width="0">
    <rect id="dee_c_e" x="-3" y="-3" width="3470" height="3470" rx="0" fill="#f4f4f4" strokewidth="0"/>
  </g>
<metadata fill="#6c63ff">
Created by potrace 1.16, written by Peter Selinger 2001-2019
</metadata>
<g transform="translate(0.000000,3464.000000) scale(0.100000,-0.100000)" fill="#6c63ff" stroke="none">
<path d="M15457 31064 c-267 -30 -491 -75 -570 -115 -51 -27 -144 -89 -225 -152 -35 -27 -112 -74 -170 -104 -249 -130 -491 -286 -647 -418 -49 -42 -173 -145 -275 -229 -235 -194 -307 -272 -388 -416 -53 -96 -93 -210 -73 -210 4 0 15 -25 25 -57 l18 -56 -95 -191 c-53 -105 -133 -249 -178 -321 -45 -71 -103 -164 -129 -205 -41 -66 -120 -212 -120 -223 0 -9 38 -47 48 -47 5 0 24 14 42 30 32 30 90 42 90 19 0 -50 -212 -458 -276 -532 -24 -28 -50 -28 -39 0 4 13 3 14 -10 3 -9 -7 -15 -8 -15 -2 0 6 -13 13 -29 17 -16 3 -35 13 -43 22 -14 18 3 53 97 198 30 46 55 91 55 99 0 9 4 16 9 16 15 0 20 42 7 61 -12 18 -13 17 -26 -6 -7 -14 -19 -25 -27 -25 -7 0 -21 -4 -31 -9 -89 -45 -113 -61 -155 -105 -110 -117 -191 -259 -222 -388 -9 -37 -22 -188 -32 -365 -15 -282 -15 -307 1 -370 12 -51 25 -76 50 -101 74 -71 132 -190 160 -324 9 -45 20 -173 25 -300 9 -225 22 -306 67 -417 17 -43 78 -104 109 -109 11 -2 26 -9 33 -14 21 -18 26 0 14 53 -14 61 -15 69 -3 69 5 0 19 -24 30 -54 20 -53 56 -133 160 -348 36 -76 50 -114 46 -131 -4 -13 -29 -48 -58 -77 l-51 -53 20 -33 c10 -18 51 -68 89 -111 39 -43 78 -88 86 -101 10 -14 36 -28 67 -36 l52 -13 -6 41 -5 41 20 -23 c24 -27 48 -129 62 -267 17 -161 -8 -459 -42 -501 -16 -20 -79 -24 -105 -7 -17 10 -32 13 -51 7 -16 -4 -36 -7 -45 -7 -10 0 -18 -7 -19 -16 0 -12 -2 -11 -9 4 -8 19 -9 19 -9 -3 -1 -13 -5 -20 -11 -17 -5 3 -10 -2 -10 -12 0 -11 -6 -25 -12 -31 -9 -9 -13 -53 -13 -150 0 -110 5 -152 22 -212 28 -98 64 -178 98 -218 23 -28 33 -32 75 -32 27 0 51 4 54 9 3 5 22 12 41 15 19 4 35 12 35 19 0 7 -9 73 -20 147 -22 153 -25 277 -7 301 8 10 28 15 59 15 27 -1 50 4 52 9 6 15 34 -57 42 -105 5 -29 11 -40 20 -36 8 3 14 1 14 -3 0 -5 -5 -11 -10 -13 -6 -2 -8 -16 -4 -35 8 -39 24 -34 24 8 0 16 4 29 9 29 5 0 9 21 10 48 0 26 1 56 2 67 2 32 -9 119 -21 166 -7 25 -15 207 -20 409 -5 201 -12 421 -15 490 -6 102 -2 169 19 360 14 129 35 323 46 430 23 215 52 414 76 531 16 73 18 77 48 85 17 4 38 6 46 5 8 -1 29 -2 47 -1 42 1 53 -21 53 -103 0 -69 6 -76 66 -77 12 0 32 -9 44 -20 16 -14 32 -19 49 -15 15 3 48 6 74 7 26 1 50 5 53 10 3 4 15 8 27 8 14 0 52 33 112 94 98 102 138 127 273 170 173 54 517 108 498 78 -4 -7 -1 -12 8 -12 11 0 17 -11 18 -32 1 -18 2 -42 3 -53 1 -11 3 -25 6 -30 16 -30 -1 -41 -134 -86 -306 -104 -427 -191 -573 -415 -56 -87 -144 -257 -144 -280 0 -6 27 -39 60 -74 l61 -62 52 35 c65 44 107 85 195 189 75 90 145 158 164 158 6 0 9 -3 5 -6 -3 -4 1 -13 9 -21 8 -9 18 -28 21 -44 6 -30 72 -97 148 -149 63 -43 195 -77 195 -50 0 6 7 10 16 10 8 0 12 5 9 10 -5 9 6 15 63 35 16 6 28 2 25 -7 -2 -5 2 -8 7 -8 6 0 10 7 10 15 0 8 7 15 15 15 18 0 19 -12 4 -27 -9 -9 -7 -10 10 -6 15 4 21 1 21 -11 0 -9 8 -16 20 -16 24 0 26 -23 5 -64 -8 -15 -13 -32 -10 -36 9 -14 -75 -58 -143 -75 -84 -22 -115 -38 -100 -53 9 -9 8 -12 -6 -12 -17 0 -146 -123 -146 -140 0 -12 27 -20 48 -14 9 3 6 -1 -8 -9 -23 -14 -22 -15 25 -10 156 15 352 69 499 137 100 46 129 46 147 0 18 -49 58 -28 181 97 176 179 283 377 310 572 12 89 5 144 -37 317 -13 52 -29 136 -35 185 -22 173 -51 309 -76 352 -56 97 -186 154 -404 178 -68 8 -90 14 -90 25 0 5 12 11 28 14 38 7 -224 -4 -270 -11 l-38 -6 -1 44 c-2 56 -2 59 -19 92 -11 23 -11 30 -1 37 10 6 11 8 1 12 -7 2 79 35 191 72 350 117 619 234 763 331 44 30 128 95 186 146 58 50 116 101 130 113 87 75 136 105 168 101 60 -8 102 -57 102 -121 0 -27 21 -32 40 -9 7 8 17 15 23 15 13 0 101 75 180 154 56 57 111 98 175 133 68 37 253 66 267 43 5 -9 9 -9 14 -1 11 17 220 -4 357 -34 157 -36 613 -166 711 -204 113 -44 256 -119 329 -172 35 -25 86 -77 119 -122 32 -42 64 -76 69 -75 16 2 47 -13 67 -33 13 -13 30 -76 55 -196 20 -98 101 -434 179 -748 219 -874 224 -900 279 -1480 51 -549 50 -513 27 -665 -11 -74 -27 -225 -36 -335 -9 -110 -27 -285 -40 -390 -13 -104 -31 -269 -40 -365 -24 -260 -72 -481 -144 -662 -44 -111 -68 -148 -94 -144 -12 3 -30 5 -40 5 -10 1 -25 16 -34 36 -10 20 -24 35 -34 35 -10 0 -21 4 -24 10 -3 5 -27 -6 -53 -24 -26 -18 -106 -64 -179 -100 -146 -74 -185 -109 -248 -222 -20 -35 -39 -66 -44 -68 -5 -3 -26 1 -46 10 -24 10 -61 14 -104 13 -64 -3 -66 -2 -81 27 -16 32 -19 145 -10 529 4 188 2 229 -12 282 -49 176 -160 293 -308 322 -30 6 -120 10 -200 9 -90 -1 -166 4 -200 12 -68 16 -194 68 -257 107 -26 16 -64 35 -83 42 -87 33 -118 52 -167 104 -47 50 -52 59 -43 81 12 33 39 59 77 75 20 8 44 33 66 69 19 32 47 68 61 81 31 29 33 54 7 80 -11 11 -17 22 -14 25 4 3 -1 14 -10 24 -10 10 -15 21 -12 23 2 3 -13 24 -34 48 -38 42 -40 43 -84 37 -60 -9 -169 -64 -239 -120 -60 -48 -225 -231 -268 -297 -29 -45 -48 -54 -239 -115 -268 -85 -309 -113 -503 -349 -79 -96 -182 -196 -223 -217 -37 -20 -90 -34 -225 -63 -267 -58 -373 -107 -447 -212 -74 -104 -94 -273 -52 -443 32 -133 58 -294 69 -425 6 -66 15 -152 21 -190 12 -76 10 -116 -6 -116 -5 0 -23 -9 -40 -19 -30 -18 -30 -18 -58 6 -15 13 -45 57 -65 97 -22 42 -43 72 -50 69 -7 -2 -12 2 -12 8 0 6 -7 4 -17 -6 -10 -9 -32 -23 -51 -31 -41 -17 -40 -29 17 -148 21 -44 44 -95 51 -112 7 -18 16 -33 21 -33 22 0 6 -31 -23 -46 -17 -9 -45 -29 -62 -45 -17 -17 -39 -28 -48 -25 -9 2 -19 -1 -20 -6 -5 -13 -94 84 -189 205 -188 238 -230 295 -287 392 -86 146 -191 428 -262 703 -60 230 -81 300 -206 697 -35 112 -123 305 -124 273 0 -13 -8 -18 -28 -18 -16 0 -36 -6 -45 -13 -15 -11 -16 -19 -8 -62 6 -28 22 -112 36 -187 15 -75 40 -174 56 -220 17 -46 52 -157 79 -248 201 -682 295 -915 502 -1248 159 -256 218 -356 218 -368 0 -6 -11 -23 -25 -38 -14 -15 -35 -46 -47 -69 -42 -84 -100 -150 -493 -563 -191 -202 -261 -288 -349 -430 -30 -49 -68 -110 -85 -136 -17 -26 -31 -52 -31 -58 0 -5 -4 -10 -9 -10 -5 0 -11 -7 -13 -15 -3 -12 -198 -265 -329 -425 -26 -31 -54 -70 -62 -87 -22 -42 -147 -157 -230 -211 -86 -55 -204 -110 -237 -110 -28 1 -133 -11 -167 -18 -13 -2 -23 -1 -23 3 0 8 -152 -1 -205 -12 -16 -3 -81 -2 -143 2 -83 6 -116 5 -123 -3 -7 -8 -6 -14 3 -17 10 -4 10 -6 1 -6 -7 -1 -13 -9 -13 -19 0 -44 -74 -48 -180 -10 -30 11 -62 21 -70 22 -43 7 -203 292 -242 431 -34 120 -30 272 10 425 67 258 191 548 320 748 8 13 11 22 6 20 -11 -3 -72 29 -95 49 -14 12 -20 10 -46 -20 -57 -65 -142 -203 -235 -382 -106 -202 -123 -231 -219 -365 -133 -188 -262 -418 -312 -557 -47 -131 -60 -229 -54 -418 9 -304 59 -612 147 -916 60 -205 70 -280 46 -327 -29 -55 -73 -82 -376 -223 -196 -92 -230 -118 -295 -234 -69 -122 -309 -379 -442 -473 -40 -28 -43 -28 -43 6 0 15 -5 33 -11 39 -9 9 -6 19 10 41 19 28 20 31 4 43 -15 12 -16 12 -10 -4 4 -11 3 -16 -3 -12 -14 9 -141 -95 -236 -192 -45 -46 -107 -120 -137 -166 -63 -93 -134 -234 -143 -284 -3 -18 -10 -33 -16 -33 -5 0 -7 -4 -4 -9 3 -4 -4 -32 -15 -62 -11 -30 -37 -121 -59 -204 -22 -87 -39 -137 -40 -120 -2 28 -3 27 -11 -10 -7 -27 -6 -41 1 -43 5 -2 7 -8 4 -14 -3 -5 -17 8 -30 29 -22 35 -23 36 -24 13 0 -15 -4 -30 -10 -36 -8 -8 -44 -129 -70 -234 -20 -86 -41 -153 -56 -181 -15 -29 -16 -30 -39 -15 -34 22 -82 11 -100 -24 -21 -40 -41 -142 -67 -335 -19 -142 -24 -163 -29 -125 -3 26 -7 34 -7 19 -2 -27 -26 -46 -37 -29 -3 5 -12 7 -21 3 -10 -4 -19 4 -27 26 -11 31 -15 32 -64 14 -6 -2 -14 5 -18 16 -4 12 -12 18 -21 14 -7 -3 -14 0 -14 6 0 6 5 11 11 11 5 0 8 4 4 10 -3 5 -13 6 -23 3 -16 -6 -16 -6 1 11 19 20 23 31 6 20 -8 -4 -9 1 -4 17 5 20 4 21 -5 9 -10 -12 -11 -10 -6 10 3 14 6 29 6 33 0 5 5 5 12 1 7 -4 8 -3 4 4 -6 10 27 90 43 102 3 3 54 104 111 224 58 120 120 243 138 273 17 30 32 58 32 64 0 5 6 9 14 9 8 0 17 8 21 18 6 16 7 16 16 -1 8 -14 14 -16 25 -6 10 8 14 8 14 0 0 -27 30 -8 41 27 6 20 18 46 25 57 8 11 14 31 14 46 0 14 13 64 30 111 16 47 31 96 34 109 3 13 12 50 20 82 18 64 20 85 6 50 -5 -13 -16 -23 -25 -23 -8 0 -15 -4 -15 -10 0 -5 5 -10 10 -10 6 0 10 -4 10 -9 0 -6 -16 -4 -37 3 -34 12 -41 11 -65 -7 -16 -12 -28 -24 -28 -28 0 -7 -63 -103 -87 -134 -30 -38 -213 -322 -273 -425 -64 -108 -90 -141 -190 -240 -215 -212 -326 -417 -415 -770 -14 -55 -41 -143 -59 -194 -37 -104 -177 -373 -281 -540 -74 -118 -123 -226 -149 -326 -15 -60 -57 -364 -107 -780 -11 -91 -28 -214 -39 -275 -11 -60 -29 -198 -41 -305 -20 -196 -44 -366 -99 -690 -16 -96 -38 -254 -50 -350 -11 -96 -38 -276 -60 -400 -50 -286 -64 -378 -95 -647 -14 -120 -41 -326 -61 -458 -19 -132 -50 -359 -70 -505 -19 -146 -43 -310 -54 -364 -21 -102 -61 -206 -79 -206 -15 0 -14 20 9 204 11 88 20 168 20 178 0 29 -18 12 -41 -40 -12 -26 -35 -76 -52 -112 -83 -180 -130 -311 -146 -405 -6 -33 -20 -159 -31 -280 -29 -303 -35 -342 -125 -760 -39 -179 -51 -232 -75 -315 -49 -170 -72 -278 -115 -530 -49 -284 -63 -348 -149 -679 -30 -118 -53 -218 -50 -223 3 -4 1 -8 -5 -8 -9 0 -27 -71 -24 -97 0 -7 -3 -13 -8 -13 -5 0 -9 -14 -9 -31 0 -17 -5 -39 -11 -51 -6 -11 -13 -34 -15 -51 -4 -37 -39 -109 -47 -100 -4 3 -4 -12 -2 -33 4 -33 3 -35 -5 -14 -8 20 -9 16 -4 -19 4 -37 2 -42 -9 -33 -17 15 -37 -27 -68 -143 -59 -224 -148 -494 -207 -625 -39 -88 -55 -137 -54 -168 0 -19 -4 -32 -12 -32 -7 0 -18 -10 -24 -22 -28 -57 -103 -251 -127 -333 -15 -49 -61 -179 -102 -290 -42 -110 -79 -215 -84 -234 -16 -70 40 -148 214 -294 212 -179 415 -324 537 -384 159 -79 228 -124 287 -186 60 -63 82 -103 116 -212 64 -202 85 -468 63 -790 l-8 -130 33 -50 c52 -77 152 -137 404 -244 121 -51 310 -141 420 -201 110 -59 250 -133 311 -163 221 -110 441 -282 493 -385 12 -24 25 -64 27 -90 5 -43 3 -50 -30 -86 -19 -22 -43 -55 -53 -73 -10 -18 -21 -33 -26 -33 -7 0 -16 -20 -31 -67 l-7 -23 2121 0 2122 0 -6 128 c-17 345 -26 707 -26 1097 0 850 -11 1004 -200 2890 -24 236 -95 996 -109 1175 -15 170 -38 582 -51 885 -6 138 -15 298 -20 357 -6 59 -8 119 -4 132 9 39 73 63 209 81 156 19 712 62 985 75 118 6 305 19 415 30 110 11 286 24 390 30 295 16 483 38 526 61 21 11 20 26 -6 84 -7 17 -21 67 -31 112 -26 123 -16 280 34 523 22 107 52 265 67 350 101 589 262 974 551 1320 48 58 147 175 219 261 145 174 245 327 303 470 64 154 121 339 122 399 4 128 4 148 -3 216 -10 91 -27 137 -60 168 -15 14 -27 30 -27 36 0 21 -35 9 -62 -23 l-28 -32 -22 27 c-13 15 -33 41 -46 58 -13 17 -28 27 -33 24 -17 -10 6 70 67 236 51 136 110 259 225 466 92 166 103 180 125 176 13 -2 24 -8 24 -13 0 -5 19 -7 43 -5 23 1 51 -2 62 -7 11 -6 38 -12 60 -13 22 -1 59 -8 82 -17 30 -10 44 -11 47 -3 3 6 3 -7 1 -29 -2 -22 -7 -78 -10 -125 -3 -47 -19 -177 -35 -290 -16 -113 -34 -261 -40 -330 -18 -208 -27 -272 -181 -1215 -35 -213 -43 -284 -50 -480 -4 -126 -15 -318 -23 -425 -8 -107 -18 -375 -21 -595 -8 -564 -19 -680 -88 -987 -13 -60 -20 -108 -16 -108 5 0 9 -7 9 -15 0 -8 3 -14 8 -14 18 3 33 -2 28 -9 -2 -4 1 -21 9 -37 7 -17 16 -43 20 -59 l6 -29 102 7 c103 7 287 23 582 50 88 9 284 22 435 31 151 9 390 24 530 35 140 11 417 31 615 45 198 13 380 27 405 30 25 3 167 12 315 20 283 16 418 26 650 50 77 8 289 24 470 35 182 11 404 27 495 35 91 8 284 21 430 30 146 9 362 24 481 35 119 11 330 26 470 35 282 16 291 17 609 45 124 11 303 24 399 29 113 7 177 14 182 22 12 20 185 6 241 -19 85 -37 95 -81 108 -460 6 -158 19 -399 29 -537 24 -307 29 -413 41 -870 10 -344 23 -532 38 -547 9 -9 74 21 85 39 28 45 66 59 217 78 53 7 227 -17 297 -41 134 -45 263 -147 375 -298 64 -86 122 -200 133 -260 21 -120 165 -433 285 -621 46 -71 133 -209 193 -305 128 -205 187 -289 296 -429 161 -205 203 -292 321 -666 69 -218 187 -669 231 -880 23 -111 43 -392 30 -409 -5 -6 -12 -38 -16 -71 -4 -33 -10 -64 -15 -70 -4 -5 -13 -27 -19 -47 -7 -21 -46 -87 -86 -148 -41 -60 -77 -126 -81 -146 -4 -19 -13 -38 -21 -41 -10 -4 -12 -14 -9 -29 4 -14 2 -24 -4 -24 -5 0 -10 -8 -10 -17 0 -10 -9 -29 -20 -43 -11 -14 -20 -28 -20 -32 0 -13 -144 -263 -213 -372 -66 -104 -147 -251 -147 -268 0 -5 649 -8 1443 -8 l1442 0 24 83 c44 145 271 569 501 932 177 280 213 367 214 515 0 47 -8 120 -17 162 -21 96 -22 176 -2 253 21 79 49 127 159 276 51 70 98 140 105 157 7 16 21 32 31 35 37 10 43 94 31 441 -11 334 -6 472 24 618 52 250 146 404 382 623 290 271 303 277 1228 570 465 148 525 177 562 273 16 42 18 81 18 362 0 362 3 344 -107 610 -102 243 -172 476 -343 1135 -127 490 -171 617 -345 1005 -51 113 -132 303 -181 423 -135 332 -218 498 -414 832 -154 262 -179 327 -255 660 -50 219 -85 362 -180 720 -23 88 -67 261 -96 385 -62 257 -86 335 -191 614 -83 223 -199 544 -243 675 -16 47 -50 145 -75 216 -26 72 -49 138 -52 148 -5 14 -8 15 -21 5 -13 -12 -14 -10 -3 10 8 14 9 28 3 35 -4 7 -14 31 -21 55 -6 23 -16 42 -22 42 -6 0 -8 4 -5 8 2 4 0 14 -6 22 -8 12 -9 12 -4 -2 3 -11 0 -18 -7 -18 -9 0 -9 -2 0 -8 6 -4 10 -21 9 -38 -2 -25 1 -30 16 -26 20 5 24 -14 7 -38 -8 -11 -9 -9 -4 10 6 20 5 23 -5 13 -10 -9 -21 -1 -52 38 -22 27 -46 49 -53 49 -7 0 -16 8 -19 18 -3 9 -13 28 -21 42 -31 53 -7 148 36 137 24 -6 34 22 13 38 -10 6 -14 17 -11 22 4 6 -1 28 -10 49 -9 22 -16 42 -15 47 1 4 -6 7 -16 7 -12 0 -14 2 -4 8 10 7 10 15 -1 40 -7 18 -17 29 -21 25 -4 -4 -4 0 -1 9 4 10 3 23 -1 30 -5 7 -9 15 -10 18 0 3 -6 18 -12 33 -7 15 -15 39 -18 52 -3 14 -11 22 -17 18 -6 -4 -8 0 -4 9 3 9 3 19 -1 22 -3 4 -7 16 -9 27 -2 11 -8 30 -15 42 -7 12 -13 27 -14 32 -7 44 -39 123 -47 118 -6 -4 -8 1 -4 11 4 10 -5 46 -23 87 -16 38 -27 69 -23 69 3 0 -2 12 -12 26 -9 14 -14 28 -11 32 3 3 6 -1 6 -8 0 -7 3 -11 6 -8 3 4 -1 19 -10 36 -8 16 -12 33 -8 37 4 5 1 4 -7 0 -11 -6 -13 -4 -8 8 4 12 1 17 -10 17 -12 0 -14 7 -10 34 4 28 3 34 -9 29 -8 -3 -14 -13 -14 -23 0 -11 -5 -22 -10 -25 -6 -3 -10 -13 -10 -21 0 -22 -25 -44 -49 -44 -24 0 -24 2 -12 -36 5 -16 17 -56 26 -89 10 -33 20 -67 23 -75 3 -8 6 -20 7 -26 15 -66 146 -465 156 -474 3 -3 13 -25 22 -50 40 -113 49 -133 63 -147 8 -9 12 -23 9 -35 -4 -10 -2 -24 3 -31 12 -16 52 -149 52 -175 0 -12 5 -24 10 -27 6 -3 10 -15 10 -26 0 -10 -4 -19 -10 -19 -5 0 -10 7 -10 15 0 8 -4 15 -8 15 -10 0 -47 61 -47 79 0 8 -6 16 -13 19 -6 2 -12 -1 -12 -7 0 -6 -11 -11 -24 -11 -13 0 -29 -6 -36 -14 -6 -8 -17 -13 -24 -10 -8 3 -20 -1 -27 -9 -25 -24 -57 -37 -93 -37 -20 0 -36 5 -36 11 0 5 -5 7 -11 3 -9 -5 -10 7 -5 44 7 55 1 67 -14 30 -7 -19 -9 -16 -9 20 -1 23 4 42 9 42 6 0 10 5 10 11 0 18 -30 -11 -31 -30 -1 -9 -5 2 -9 24 -14 70 -47 202 -53 212 -3 5 -8 53 -12 108 -4 55 -13 125 -21 156 -8 31 -14 68 -14 82 0 14 -5 27 -12 29 -6 2 -13 24 -14 48 -1 25 -7 46 -13 48 -6 2 -11 12 -11 22 0 11 -13 56 -29 102 -16 46 -39 117 -51 158 -13 41 -31 89 -42 107 -10 17 -17 35 -16 40 1 4 -4 18 -11 31 -7 13 -10 35 -6 51 4 20 1 34 -12 46 -10 11 -19 37 -21 64 -1 25 -7 47 -12 49 -6 2 -10 35 -10 72 0 45 -5 74 -13 82 -8 6 -12 22 -9 34 2 14 -4 27 -18 37 -12 8 -17 16 -12 18 13 6 25 79 13 79 -6 0 -8 7 -4 16 4 11 15 -3 34 -46 16 -34 29 -69 29 -78 1 -21 28 -58 36 -49 4 4 2 46 -4 94 -11 92 -7 109 25 99 18 -6 37 -39 49 -88 3 -16 10 -28 15 -28 7 0 17 -18 54 -105 55 -127 59 -133 82 -118 17 11 26 12 43 3 16 -9 24 -8 36 4 8 9 12 21 8 27 -4 8 -3 9 4 5 8 -5 11 1 10 18 -1 14 -8 28 -15 30 -7 3 -13 10 -13 16 0 6 5 8 10 5 6 -4 4 9 -4 27 -8 18 -24 59 -37 91 -12 33 -28 61 -36 64 -11 4 -11 8 -3 13 8 5 8 11 -3 21 -7 8 -12 19 -10 25 2 7 -3 19 -12 27 -8 9 -15 22 -15 30 0 22 -12 28 -29 14 -14 -10 -14 -10 -3 4 10 13 10 22 1 43 -7 14 -16 26 -22 26 -5 0 -7 6 -4 14 3 8 -3 24 -14 37 -10 12 -19 27 -19 33 0 6 -6 23 -14 38 -8 14 -19 42 -26 62 -7 21 -16 33 -22 30 -6 -4 -8 -2 -5 4 8 12 -13 113 -22 108 -13 -8 -2 203 13 274 15 69 14 121 -4 145 -13 18 -10 158 5 268 8 60 31 188 50 285 78 400 78 404 79 538 l1 131 -35 65 c-29 53 -77 105 -264 287 -147 142 -251 235 -289 257 -58 34 -161 64 -174 50 -3 -3 0 -17 7 -31 7 -14 11 -26 9 -28 -2 -1 -35 -10 -74 -20 -94 -23 -208 -80 -346 -174 -63 -42 -141 -94 -173 -116 -76 -51 -160 -85 -230 -93 l-56 -7 0 45 0 45 -152 23 c-304 45 -544 38 -893 -26 -668 -124 -749 -129 -911 -49 -138 68 -210 181 -279 440 -54 204 -107 364 -197 595 -106 271 -165 450 -184 561 -31 184 1 261 196 464 72 76 110 131 110 162 0 50 95 204 163 264 30 26 30 27 10 40 -12 7 -19 19 -16 26 3 7 0 13 -6 13 -8 0 -8 6 1 20 7 10 14 17 17 15 6 -7 31 15 31 27 0 5 -4 7 -8 4 -11 -7 -88 29 -98 46 -5 8 -58 32 -119 53 -60 20 -164 60 -230 87 -202 83 -325 125 -441 149 -99 21 -116 22 -152 10 -22 -8 -53 -11 -69 -7 -15 4 -42 8 -59 10 -17 2 -42 15 -56 28 -14 12 -47 44 -74 69 -27 25 -78 76 -114 114 -36 38 -68 68 -72 67 -5 -1 -8 3 -8 9 0 16 -31 44 -49 44 -9 0 -16 5 -16 11 0 6 -16 24 -35 40 -19 16 -39 34 -45 41 -23 27 -190 110 -430 213 -230 99 -251 107 -342 130 -39 10 -77 21 -84 26 -12 7 -122 34 -149 36 -8 1 -70 1 -137 0 -116 -2 -123 -3 -123 -22 0 -17 -7 -20 -50 -20 -67 0 -144 18 -207 47 -38 18 -63 23 -97 20 -26 -2 -49 0 -52 5 -3 4 -10 6 -15 3 -9 -6 -17 -3 -117 48 -28 15 -61 27 -71 27 -11 0 -22 4 -25 9 -4 5 -24 12 -46 16 -22 4 -40 11 -40 16 0 5 -20 9 -44 9 -25 0 -47 4 -50 9 -3 4 -29 11 -58 13 -29 3 -54 11 -56 17 -7 20 -22 12 -22 -13 0 -13 -9 -35 -20 -49 -26 -33 -25 -40 11 -77 17 -17 29 -34 25 -37 -9 -9 -56 -10 -56 -2 0 4 -9 5 -20 2 -21 -5 -75 24 -104 56 -10 11 -22 18 -26 16 -5 -3 -21 16 -36 42 -61 104 -123 171 -186 202 l-61 29 -40 -25 c-22 -14 -51 -26 -64 -27 -27 -1 -27 -1 11 -92 48 -114 56 -202 56 -609 0 -488 -12 -608 -80 -783 -38 -99 -185 -346 -377 -632 -81 -121 -185 -278 -230 -348 -183 -284 -236 -361 -313 -452 -291 -343 -331 -407 -405 -665 -60 -205 -95 -288 -168 -398 -102 -152 -249 -289 -479 -447 -149 -102 -194 -142 -455 -409 -312 -321 -404 -391 -560 -427 -143 -33 -314 -106 -327 -139 -13 -34 32 -113 58 -101 87 40 190 76 204 72 10 -3 23 -19 29 -36 13 -35 -6 -77 -73 -163 -59 -74 -213 -354 -255 -462 -7 -20 -17 -59 -26 -105 -12 -65 -68 -196 -188 -440 -73 -146 -141 -290 -153 -320 -93 -238 -117 -292 -159 -363 -26 -44 -68 -97 -92 -118 -68 -60 -131 -69 -131 -18 0 14 -7 19 -25 19 -15 0 -40 7 -58 17 -20 10 -51 15 -81 14 -46 -2 -51 0 -95 46 -62 65 -122 191 -188 398 -68 212 -104 312 -159 442 -63 151 -96 262 -89 301 7 36 20 40 64 15 28 -16 33 -16 42 -3 29 42 -17 198 -188 645 -137 358 -181 487 -228 677 -65 261 -125 411 -185 461 -43 36 -57 65 -85 167 -25 96 -85 510 -85 594 0 72 -4 76 -76 76 -60 0 -64 -2 -79 -29 -8 -16 -25 -64 -37 -108 -32 -110 -31 -314 2 -458 35 -157 35 -151 9 -158 -17 -5 -35 5 -78 45 -91 82 -124 157 -141 318 -13 125 -13 957 1 1180 5 96 14 351 18 565 10 438 14 471 91 633 77 161 161 258 440 502 210 184 279 256 316 327 25 51 29 68 28 143 0 96 -9 129 -113 443 -38 114 -63 203 -55 196 10 -8 14 -8 14 0 0 10 19 9 86 -4 28 -6 63 -42 145 -151 82 -109 159 -188 219 -229 92 -61 125 -93 236 -232 160 -198 227 -256 473 -408 69 -42 176 -112 239 -157 124 -87 203 -127 301 -153 44 -11 71 -25 89 -46 79 -88 86 -100 97 -149 4 -19 12 -43 18 -55 23 -45 24 -51 10 -64 -13 -11 -11 -16 8 -37 21 -23 22 -28 15 -141 -4 -65 -8 -125 -7 -133 0 -8 -5 -63 -11 -123 -8 -82 -14 -105 -23 -97 -6 5 -14 8 -17 5 -2 -3 -13 50 -23 118 -10 67 -22 126 -27 131 -5 6 -8 2 -8 -10 -2 -291 -7 -360 -33 -436 -31 -89 -82 -199 -100 -213 -6 -5 -13 -21 -15 -35 -1 -13 -9 -28 -17 -33 -15 -8 -55 -127 -56 -168 0 -22 -1 -23 -9 -4 -9 23 -10 3 -11 -180 -1 -106 3 -131 27 -205 24 -72 36 -93 80 -137 66 -66 104 -77 244 -70 110 6 206 29 425 103 225 75 322 121 444 210 40 30 77 51 82 48 5 -3 9 0 9 5 0 6 7 11 15 11 8 0 15 5 15 10 0 6 7 10 15 10 26 0 62 70 150 290 199 499 371 788 534 900 31 21 67 47 81 59 14 11 32 26 40 33 33 26 154 145 310 304 169 173 210 217 340 364 41 47 79 88 85 92 6 5 6 8 -1 8 -6 0 -19 -10 -28 -22 -14 -20 -15 -21 -9 -3 3 11 11 26 17 34 9 12 8 12 -11 2 -13 -6 -23 -19 -23 -28 0 -9 -3 -13 -7 -9 -12 11 29 77 44 72 8 -3 11 -1 8 4 -3 6 1 13 9 16 9 3 16 10 16 15 0 18 -20 8 -51 -26 -18 -19 -41 -35 -52 -35 -17 0 -19 5 -13 32 l6 31 -23 -26 c-12 -15 -26 -27 -30 -27 -5 0 -62 -53 -128 -117 -66 -65 -125 -120 -132 -122 -7 -2 -18 -11 -25 -20 -11 -14 -11 -14 -6 2 3 9 1 17 -5 17 -6 0 -11 -8 -11 -17 -1 -17 -1 -17 -11 0 -5 9 -7 22 -4 27 3 6 2 10 -3 10 -6 0 -8 17 -5 40 4 25 2 40 -5 40 -6 0 -12 10 -14 23 -3 19 -9 22 -43 22 -30 0 -41 4 -43 18 -2 10 -9 16 -16 14 -7 -3 -13 0 -14 6 -1 20 -33 101 -44 114 -8 9 -1 29 24 70 18 32 42 77 52 101 l19 42 -28 30 c-27 28 -28 32 -17 68 7 22 12 52 12 68 0 16 9 46 20 67 11 20 20 46 20 57 0 11 4 20 8 20 5 0 17 19 28 43 10 23 23 45 29 49 6 5 5 8 -2 8 -7 0 -13 5 -13 10 0 6 7 10 16 10 11 0 14 5 10 16 -3 9 4 25 17 38 12 13 31 40 42 61 11 21 25 43 30 49 6 6 47 56 90 111 434 545 536 741 580 1110 21 186 38 235 79 235 56 0 89 71 175 375 62 220 85 335 106 530 9 83 27 220 41 305 13 85 28 229 34 320 6 91 15 221 20 289 10 122 11 124 45 162 33 37 35 43 35 109 0 38 -9 116 -20 174 -57 294 -75 550 -46 647 25 81 84 185 125 221 21 18 73 53 114 76 74 43 76 43 106 27 17 -8 47 -32 66 -53 l34 -37 1 32 c0 31 12 41 59 49 29 5 30 23 6 119 -40 156 -97 643 -93 790 3 119 3 120 48 209 69 139 68 229 -6 418 -46 119 -49 202 -10 323 51 155 53 190 27 384 -14 106 -19 700 -7 882 9 144 2 208 -35 280 -34 67 -98 137 -173 187 -131 88 -235 117 -473 130 -138 8 -156 11 -217 40 -94 44 -167 103 -361 292 -93 91 -215 204 -271 252 -133 114 -178 157 -324 315 -251 271 -425 372 -897 517 -363 112 -546 147 -863 165 -235 14 -717 11 -863 -5z m-1471 -956 c5 -7 2 -9 -8 -6 -8 4 -15 0 -15 -7 0 -10 5 -11 18 -4 24 12 64 -22 46 -40 -8 -8 -8 -11 1 -11 7 0 12 -4 12 -10 0 -5 -6 -10 -14 -10 -8 0 -16 -4 -18 -8 -1 -5 -46 -37 -98 -72 -102 -68 -270 -206 -360 -295 -30 -30 -60 -55 -67 -55 -7 0 -16 -8 -21 -17 -7 -11 -25 -17 -56 -19 -51 -3 -64 7 -41 33 9 10 30 36 46 58 77 102 175 191 379 344 74 55 144 108 155 116 23 18 32 19 41 3z m-671 -1058 c-3 -5 -15 -10 -26 -10 -10 0 -19 -4 -19 -10 0 -5 6 -10 13 -10 8 0 24 -9 37 -20 28 -25 39 -25 56 -2 13 16 13 16 14 0 0 -10 -4 -18 -10 -18 -5 0 -10 -8 -10 -18 0 -10 -6 -27 -14 -38 -8 -11 -23 -47 -34 -80 -17 -47 -21 -53 -21 -29 -1 22 -4 26 -13 17 -19 -19 -28 -14 -28 13 0 14 -5 33 -11 43 -9 15 -8 30 5 70 10 28 14 56 11 62 -4 6 -1 17 5 25 14 17 55 21 45 5z m850 -1920 c-3 -5 -2 -10 4 -10 5 0 13 5 16 10 3 6 14 10 23 9 14 0 13 -2 -3 -9 -18 -8 -17 -9 8 -9 25 -1 27 -4 27 -41 0 -22 5 -40 10 -40 6 0 10 -7 10 -15 0 -9 7 -26 15 -39 9 -13 14 -35 13 -50 -3 -22 -25 -36 -152 -101 -81 -42 -181 -98 -221 -125 -72 -48 -205 -174 -205 -194 0 -16 -29 27 -30 44 -1 19 -73 75 -78 61 -2 -6 -10 -11 -17 -11 -14 0 -30 63 -20 83 4 6 0 4 -8 -5 -8 -10 -17 -18 -21 -18 -11 0 -6 16 12 36 10 10 28 34 41 52 74 105 427 349 532 367 19 3 35 8 38 11 8 8 12 4 6 -6z m332 -917 c-15 -4 -16 -7 -5 -20 11 -14 10 -16 -13 -10 -18 5 -26 3 -26 -7 0 -9 7 -12 16 -8 14 5 14 4 1 -13 -9 -11 -10 -16 -2 -11 6 4 12 3 12 -2 0 -6 -26 -25 -57 -42 -32 -18 -83 -49 -113 -70 -93 -62 -135 -41 -69 34 53 61 213 156 259 154 10 0 9 -2 -3 -5z m2642 -3449 c163 -19 329 -65 477 -134 111 -51 157 -137 158 -295 1 -86 -1 -93 -37 -160 -20 -38 -51 -97 -67 -130 -29 -60 -136 -405 -149 -481 -11 -65 -44 -107 -103 -135 -29 -13 -54 -27 -56 -31 -2 -5 -10 -8 -18 -8 -9 0 -12 5 -8 11 5 9 -1 10 -22 5 -16 -5 -42 -10 -58 -12 -15 -2 -35 -9 -42 -15 -8 -7 -17 -9 -20 -6 -3 3 7 12 23 20 43 23 113 94 113 116 0 37 -78 43 -143 10 -69 -36 -192 -63 -332 -74 -38 -2 -87 -8 -108 -11 -31 -5 -36 -3 -31 10 3 9 1 22 -5 30 -6 7 -13 28 -15 47 -4 33 -40 74 -56 64 -11 -7 -25 80 -16 94 4 7 1 8 -8 5 -9 -3 -16 -2 -16 4 0 5 10 13 23 17 19 6 19 8 5 12 -10 2 -18 9 -18 14 0 6 4 8 9 4 5 -3 12 -1 16 5 3 5 0 10 -7 10 -7 0 -4 6 6 12 43 25 246 233 298 306 68 93 182 308 173 323 -4 6 -13 8 -21 5 -9 -3 -14 2 -14 14 0 26 -26 26 -110 0 -72 -23 -212 -43 -400 -60 -316 -27 -630 -84 -753 -136 -118 -49 -119 -51 -74 -138 45 -88 140 -193 266 -295 118 -96 203 -180 195 -192 -3 -6 -1 -16 6 -23 6 -8 12 -22 14 -32 2 -11 6 -35 10 -55 8 -44 -1 -52 -106 -105 -79 -39 -101 -55 -153 -115 -47 -53 -125 -114 -180 -142 -69 -34 -153 -60 -170 -53 -8 3 -15 1 -15 -5 0 -15 -23 12 -37 42 -9 21 -20 27 -61 33 -62 8 -156 67 -198 124 -17 23 -51 78 -75 122 -24 45 -83 150 -130 233 -47 84 -104 186 -126 227 -22 41 -50 93 -62 114 -29 51 -36 119 -21 203 23 125 61 171 194 237 205 101 441 190 563 211 48 8 178 20 288 25 208 9 274 19 490 75 183 47 278 65 392 73 113 8 139 7 322 -14z m-3887 -3086 c-14 -14 -16 -32 -3 -24 5 3 12 -5 15 -19 4 -16 11 -22 21 -19 9 4 18 -1 21 -11 4 -9 13 -14 20 -11 18 7 18 3 -7 -41 -68 -122 -74 -129 -101 -124 -5 0 -8 -6 -8 -15 0 -8 -4 -13 -8 -10 -5 3 -24 -7 -43 -23 -56 -46 -257 -175 -364 -234 -55 -30 -229 -119 -386 -197 -288 -142 -365 -189 -339 -205 7 -5 11 -4 8 1 -4 5 7 9 23 9 16 0 29 -3 29 -7 0 -5 -11 -8 -25 -8 -14 0 -25 -4 -25 -9 0 -5 14 -8 30 -6 35 5 39 -2 9 -13 -20 -8 -19 -8 5 -22 24 -12 34 -11 104 18 42 18 82 32 88 32 29 0 221 93 349 171 87 52 135 69 135 49 0 -7 11 -22 24 -34 13 -11 26 -28 28 -36 3 -17 -162 -227 -237 -302 -26 -27 -54 -48 -61 -48 -8 0 -14 -7 -14 -15 0 -9 -6 -12 -17 -8 -10 4 -14 2 -9 -5 7 -11 -26 -35 -38 -27 -3 3 -4 2 -2 -1 8 -11 -18 -32 -32 -26 -8 3 -17 1 -21 -4 -8 -12 -61 -44 -83 -51 -10 -3 -18 -9 -18 -14 0 -5 -5 -9 -10 -9 -6 0 -56 -26 -112 -57 -163 -93 -291 -232 -374 -406 -35 -75 -37 -82 -46 -245 -5 -92 -7 -188 -4 -215 5 -46 4 -47 -19 -41 -14 3 -38 1 -55 -4 -22 -8 -30 -8 -31 1 0 8 -3 7 -6 -2 -5 -11 -7 -11 -14 0 -6 10 -9 7 -10 -11 0 -14 -7 4 -14 39 -16 72 -41 115 -114 191 -57 62 -147 206 -162 264 -15 56 2 101 68 181 30 36 51 70 48 75 -3 6 -1 10 4 10 6 0 11 6 11 13 0 14 13 30 84 106 33 35 37 42 19 36 -16 -4 -23 -2 -23 8 0 7 -11 23 -24 34 l-24 21 -33 -20 c-45 -27 -209 -161 -359 -292 -178 -156 -165 -145 -151 -118 7 12 9 28 5 34 -5 8 -1 9 12 5 14 -5 12 -2 -6 12 -13 11 -28 17 -32 15 -3 -2 -9 0 -13 6 -4 6 -10 8 -15 5 -4 -3 -6 5 -3 17 4 19 3 20 -6 8 -6 -8 -11 -10 -11 -4 -1 52 367 355 790 651 286 200 389 264 550 341 445 212 634 314 792 424 32 23 91 80 130 127 40 47 77 89 83 93 16 12 20 9 7 -4z m-2352 -1845 c0 -5 -7 -17 -15 -27 -8 -11 -15 -25 -15 -30 0 -6 5 -4 10 4 7 12 12 12 22 2 16 -16 39 -114 25 -105 -5 3 -8 0 -5 -8 3 -8 -27 -52 -65 -99 -65 -81 -78 -101 -109 -177 -7 -18 -16 -33 -20 -33 -5 0 -7 -3 -6 -7 3 -13 -25 -83 -34 -83 -4 0 -8 -6 -8 -14 0 -8 -6 -21 -13 -28 -8 -7 -21 -29 -31 -49 -9 -19 -30 -49 -46 -67 -16 -18 -28 -34 -27 -35 6 -7 -31 -46 -38 -39 -5 4 -5 2 -1 -5 4 -7 -6 -31 -21 -54 -15 -23 -33 -51 -39 -61 -9 -15 -13 -16 -17 -6 -3 7 -6 3 -6 -9 -1 -21 -11 -28 -34 -24 -4 1 -3 -8 4 -20 7 -15 8 -19 0 -15 -6 4 -19 -7 -29 -23 -10 -17 -22 -28 -27 -23 -5 4 -5 1 -1 -6 9 -16 -12 -44 -26 -36 -6 4 -8 -2 -3 -15 3 -12 3 -20 -2 -19 -4 2 -9 -1 -11 -7 -2 -5 -12 -13 -23 -17 -12 -5 -19 -13 -17 -19 2 -6 -11 -28 -30 -48 -18 -20 -36 -49 -39 -64 -3 -16 -12 -31 -19 -34 -8 -3 -14 -11 -14 -19 0 -8 -5 -14 -10 -14 -6 0 -10 -6 -8 -12 1 -7 -5 -24 -14 -38 -9 -14 -22 -47 -28 -74 -13 -61 -30 -94 -27 -54 3 36 -17 41 -21 5 -5 -41 -53 -68 -119 -66 -49 2 -53 4 -53 26 0 16 -4 22 -12 17 -8 -5 -9 -2 -4 12 5 10 11 38 13 62 6 42 5 42 -26 42 -34 0 -39 10 -16 34 8 8 15 17 15 21 0 8 107 153 133 180 10 11 31 36 45 55 15 19 29 37 32 40 15 14 95 127 155 215 36 55 73 108 81 118 9 11 13 25 10 33 -3 8 -2 13 3 10 10 -7 41 53 41 79 0 9 -5 13 -10 10 -6 -4 -8 -11 -5 -16 4 -5 2 -9 -4 -9 -9 0 -66 -57 -122 -123 -53 -61 -70 -79 -75 -74 -6 6 29 67 39 67 4 0 7 6 7 14 0 7 7 19 15 26 9 7 15 29 15 52 0 31 6 45 26 60 15 13 24 28 22 41 -5 34 -26 31 -30 -4 -3 -35 -22 -49 -31 -25 -4 11 -1 13 10 9 13 -5 15 -2 10 11 -5 12 3 26 25 46 17 16 35 27 40 24 4 -3 8 1 8 9 0 8 26 34 58 58 31 24 62 48 68 54 6 5 27 21 47 35 20 14 40 33 43 43 3 9 10 17 15 17 5 0 9 6 9 14 0 8 6 17 13 19 9 4 8 8 -3 17 -12 9 -11 10 8 5 13 -4 22 -2 22 4 0 6 -5 11 -11 11 -17 0 11 23 61 49 62 33 159 103 194 139 17 19 34 28 44 25 11 -5 14 -2 9 10 -4 11 -1 17 8 17 8 0 15 -3 15 -7z m1866 -965 c8 -7 28 -25 44 -40 15 -16 33 -28 39 -28 23 0 -6 -33 -119 -134 -69 -63 -123 -120 -131 -139 -15 -36 -37 -57 -55 -50 -6 2 -14 -3 -18 -13 -6 -15 -8 -15 -27 2 -12 10 -32 37 -44 59 -28 47 -68 158 -54 150 5 -4 9 4 10 17 0 13 4 32 8 43 7 16 10 14 26 -22 l18 -41 39 49 c22 28 49 54 61 60 12 5 47 25 77 44 30 19 61 34 68 35 6 0 12 5 12 10 0 14 28 12 46 -2z m5599 -684 c22 -11 39 -26 38 -32 -2 -7 4 -12 12 -12 25 0 17 -19 -18 -41 -34 -23 -73 -95 -55 -101 12 -4 -37 -58 -52 -58 -6 0 -10 -8 -10 -18 0 -25 -20 -42 -49 -42 -15 0 -37 -6 -51 -13 -21 -11 -31 -10 -62 3 -23 9 -38 22 -38 33 0 9 -6 17 -13 17 -8 0 -20 18 -27 40 -11 34 -11 42 2 57 8 10 18 26 21 36 4 10 11 16 16 12 5 -3 12 -1 16 5 3 5 1 10 -4 10 -6 0 -11 5 -11 12 0 9 3 9 12 0 17 -17 36 -15 43 6 3 9 28 28 55 41 28 13 50 28 50 32 0 4 10 11 22 15 12 3 29 13 36 21 8 8 18 11 21 6 3 -4 24 -17 46 -29z m8954 -249 c-4 -121 -11 -239 -15 -263 -7 -46 -22 -65 -22 -29 -4 200 -1 338 8 385 11 58 32 134 35 130 1 -2 -1 -102 -6 -223z m-189 -534 c0 -11 6 -26 13 -33 7 -7 16 -21 20 -30 3 -10 13 -18 22 -18 16 0 17 -7 17 -148 0 -45 4 -85 9 -88 11 -6 10 -129 -1 -164 -8 -24 -8 -24 -9 -2 -1 12 -7 22 -16 22 -8 0 -15 5 -15 10 0 6 -13 10 -29 10 -21 0 -32 -6 -36 -20 -3 -11 -11 -20 -16 -20 -5 0 -9 9 -9 20 0 13 -7 20 -20 20 -14 0 -20 7 -20 21 0 11 -4 17 -10 14 -6 -4 -10 6 -9 22 0 25 1 26 9 8 14 -32 11 -9 -6 60 -9 36 -20 62 -25 59 -5 -3 -9 9 -9 25 0 17 4 31 9 31 5 0 11 41 13 92 2 61 7 93 16 96 6 2 12 10 12 18 0 10 13 14 45 14 38 0 45 -3 45 -19z m-8815 -1021 c-6 -18 -2 -20 41 -20 l47 0 -7 -31 c-3 -17 -6 -42 -6 -56 0 -14 -4 -21 -10 -18 -5 3 -10 1 -10 -4 0 -7 -32 -11 -85 -11 -83 0 -96 5 -74 27 8 8 7 17 -5 34 -16 23 -16 23 -16 -19 0 -44 -7 -48 -45 -32 -19 8 -19 9 2 9 12 1 25 6 29 12 11 19 -22 41 -70 46 -25 3 -46 9 -46 14 0 9 93 28 138 27 34 -1 56 12 33 20 -23 8 9 22 52 22 34 0 38 -2 32 -20z m-10455 -460 c5 0 11 10 14 23 6 31 -3 -90 -15 -198 -12 -103 -75 -444 -90 -492 -9 -30 -15 -33 -48 -33 -34 0 -39 3 -48 34 -6 19 -9 47 -7 63 4 27 3 27 -5 3 -4 -14 -6 -37 -3 -52 3 -17 0 -28 -7 -28 -6 0 -11 12 -12 28 0 15 -3 20 -6 12 -2 -8 -8 -24 -13 -35 -5 -11 -11 -27 -13 -35 -3 -8 -6 -4 -6 11 -1 14 4 30 11 37 6 6 11 34 10 62 -1 35 3 48 10 44 7 -5 9 -2 5 9 -3 9 0 47 7 84 8 37 22 121 31 185 11 72 22 115 28 111 6 -3 7 -1 3 6 -4 6 -2 44 4 83 7 42 15 65 20 58 5 -8 10 -2 15 18 6 29 10 31 53 34 38 2 48 0 50 -14 2 -10 7 -18 12 -18z m5970 -1485 c0 -9 6 -12 15 -9 8 4 26 -1 40 -10 13 -9 31 -16 40 -16 17 0 19 -23 6 -66 -5 -16 -14 -49 -22 -74 -7 -25 -32 -103 -57 -175 -24 -71 -64 -188 -88 -260 -46 -133 -81 -258 -114 -400 -11 -45 -24 -92 -29 -105 -9 -24 -10 -24 -10 -3 -1 16 -6 21 -16 17 -8 -4 -26 1 -40 10 -31 20 -35 20 -36 -1 -1 -15 -2 -14 -7 2 l-5 20 -8 -20 c-5 -13 -6 -3 -3 25 4 33 3 41 -5 30 -9 -12 -11 -11 -11 9 0 54 53 280 99 418 27 81 68 207 91 278 50 157 120 337 134 347 13 9 26 0 26 -17z m-4284 -431 c-10 -26 60 -84 101 -84 37 0 41 -12 18 -56 -8 -16 -15 -41 -15 -56 0 -15 -7 -33 -15 -42 -8 -8 -18 -30 -22 -48 -6 -33 -75 -112 -87 -101 -3 3 -2 11 3 17 4 6 11 20 15 30 5 16 4 17 -9 6 -8 -7 -15 -8 -15 -3 0 6 -18 13 -39 17 -22 3 -42 12 -45 18 -5 10 -7 10 -12 0 -3 -6 -9 -10 -14 -7 -4 3 -19 1 -32 -5 -20 -9 -19 -10 14 -8 20 1 40 -1 44 -5 4 -4 -11 -7 -34 -7 -30 0 -42 -5 -46 -17 -2 -10 -3 -4 -1 12 5 44 31 101 39 84 3 -8 3 -4 0 8 -6 25 12 66 26 58 4 -3 6 3 4 12 -5 21 49 119 64 116 5 -1 9 5 8 15 0 9 4 16 10 15 7 -1 15 9 18 22 4 14 11 25 17 25 6 0 8 -7 5 -16z m18412 -2924 c36 0 92 -19 92 -31 0 -5 7 -9 15 -9 8 0 15 -6 15 -12 0 -9 4 -8 10 2 11 18 8 -6 -26 -208 -13 -78 -44 -222 -68 -320 -25 -97 -59 -247 -75 -332 -37 -184 -65 -283 -86 -300 -8 -7 -15 -21 -15 -31 0 -10 -5 -21 -12 -25 -8 -5 -9 -2 -5 9 3 10 3 17 -2 17 -5 0 -12 -10 -16 -22 -4 -14 -8 -18 -12 -10 -2 6 -16 12 -30 12 -30 0 -104 20 -117 32 -14 12 -36 10 -51 -5 -7 -7 -26 -25 -41 -38 -16 -14 -34 -34 -41 -45 -35 -55 -83 -150 -117 -232 -21 -50 -42 -89 -47 -86 -5 3 -9 -2 -9 -11 0 -9 -5 -26 -12 -38 -11 -21 -11 -21 -20 -2 -6 16 -7 14 -3 -7 4 -20 1 -28 -9 -28 -8 0 -18 4 -21 10 -3 5 -32 17 -63 26 -31 9 -62 21 -69 26 -8 6 -13 2 -16 -14 -4 -21 -4 -21 -6 4 0 14 -6 28 -12 30 -16 5 60 275 133 468 19 51 28 62 45 56 11 -5 14 -1 11 12 -3 11 4 24 18 35 21 16 24 16 32 0 9 -14 11 -14 21 5 7 12 20 22 31 22 10 0 28 12 39 28 11 15 31 38 44 52 32 33 110 162 138 227 12 29 25 50 29 48 3 -2 6 4 7 13 1 18 37 124 53 157 5 11 18 54 30 95 73 269 102 365 109 368 4 1 6 17 4 35 -2 23 -1 27 5 13 7 -17 10 -16 26 8 17 26 19 27 41 12 14 -9 37 -16 53 -16z m-21868 -1578 c-33 -209 -69 -369 -102 -454 -29 -76 -48 -99 -48 -58 0 12 11 87 25 168 14 81 35 199 46 262 11 63 24 129 29 145 5 17 17 55 26 85 43 143 56 61 24 -148z m19465 -112 c12 0 26 5 32 11 9 9 18 5 38 -15 14 -14 32 -26 40 -26 8 0 15 -8 15 -18 0 -12 13 -23 36 -31 19 -7 38 -19 41 -27 3 -8 10 -14 17 -14 15 0 39 -29 79 -93 53 -86 89 -117 137 -117 16 0 20 -6 20 -35 0 -36 16 -81 38 -104 17 -18 7 -63 -24 -109 -14 -20 -23 -41 -20 -48 3 -8 -1 -11 -9 -8 -7 3 -23 -4 -34 -15 -12 -12 -25 -21 -30 -21 -6 0 -16 -8 -23 -18 -17 -24 -72 -54 -128 -72 -25 -7 -52 -19 -60 -26 -8 -6 -26 -15 -40 -19 -14 -3 -44 -15 -67 -26 -24 -10 -49 -19 -57 -19 -8 0 -19 -6 -23 -14 -8 -13 -42 -24 -93 -30 -14 -2 -29 -4 -33 -5 -5 0 -5 -5 -2 -11 3 -5 -7 -12 -22 -16 -15 -4 -55 -20 -87 -36 -33 -15 -65 -28 -72 -28 -6 0 -30 -8 -51 -18 -47 -21 -133 -18 -133 4 0 8 -8 14 -18 14 -10 0 -23 5 -30 12 -6 6 -34 11 -62 9 -44 -2 -50 0 -50 19 0 11 4 20 9 20 4 0 6 23 3 50 -2 28 0 50 5 50 11 0 180 110 208 137 11 10 36 30 55 44 98 74 174 168 212 265 9 23 30 70 47 105 34 74 52 141 41 159 -8 12 -25 11 -77 -5 -15 -5 -23 -3 -23 4 0 6 9 11 20 11 10 0 23 6 27 14 4 7 18 18 31 25 12 6 22 18 22 26 0 8 6 15 13 15 8 0 20 11 27 25 9 17 17 22 24 15 5 -5 19 -10 31 -10z m-700 -2346 c143 -30 339 -85 343 -96 2 -4 15 -8 29 -8 l26 0 -26 -20 c-14 -11 -32 -20 -40 -20 -17 0 -34 -18 -56 -63 l-16 -32 -104 -3 c-70 -2 -107 -7 -117 -16 -7 -8 -11 -16 -9 -18 3 -2 -8 -5 -23 -6 -15 0 -70 -10 -122 -21 -111 -24 -129 -26 -113 -10 15 15 4 47 -19 55 -25 8 -97 -3 -151 -23 -23 -8 -54 -16 -68 -17 -14 -1 -58 -21 -97 -44 -76 -45 -104 -54 -81 -25 12 14 12 16 -1 8 -8 -5 -32 -10 -52 -11 -43 -2 -44 2 -27 75 10 46 42 85 109 131 19 13 37 27 40 30 17 18 265 132 315 144 87 20 126 19 260 -10z m865 -17 c67 -16 226 -35 317 -39 29 -1 50 -5 47 -9 -2 -4 1 -9 7 -11 9 -3 9 -9 0 -26 -6 -11 -14 -48 -18 -82 l-6 -60 -146 0 c-88 0 -140 -4 -132 -9 40 -25 -192 24 -294 63 l-40 15 32 11 c34 12 38 18 59 100 8 30 20 58 27 62 15 9 61 5 147 -15z m-20180 -259 c0 -17 -4 -45 -9 -62 -13 -42 -30 -160 -41 -287 -10 -120 1 -209 44 -348 44 -142 33 -228 -38 -300 -25 -25 -63 -66 -84 -90 -31 -35 -47 -45 -78 -48 -21 -2 -45 -11 -51 -20 -12 -15 -13 -15 -13 4 0 12 9 49 19 84 10 35 22 81 25 101 6 33 5 37 -10 31 -11 -4 -15 -2 -11 4 10 16 -21 25 -44 13 -13 -8 -25 -7 -39 0 -17 9 -20 8 -20 -10 0 -22 -15 -27 -23 -7 -6 15 2 61 33 192 11 49 18 101 15 115 -3 15 -2 20 3 12 9 -13 44 103 44 145 0 13 3 21 7 18 4 -2 13 19 21 48 7 28 26 83 42 121 15 38 28 73 28 78 0 5 16 33 35 63 23 36 42 55 55 55 23 0 70 65 70 97 0 13 5 23 10 23 6 0 10 -14 10 -32z m19838 -665 c18 -4 20 -8 10 -15 -8 -5 -4 -6 13 -3 16 4 46 -1 75 -13 27 -11 96 -39 154 -62 58 -23 124 -53 148 -66 38 -22 42 -29 42 -62 0 -21 -4 -42 -8 -47 -5 -6 -15 -26 -23 -45 -7 -19 -18 -40 -23 -46 -10 -11 -42 -8 -61 6 -5 4 -84 36 -175 70 -149 56 -230 93 -230 106 0 3 6 17 14 32 7 15 17 51 21 80 4 28 12 52 18 52 7 0 5 5 -3 10 -17 11 -6 13 28 3z" fill="#6c63ff"/>
<path d="M17325 27365 c-49 -8 -135 -23 -190 -34 -55 -11 -154 -27 -220 -36 -66 -10 -153 -26 -193 -36 -142 -36 -304 -111 -334 -153 -13 -19 -9 -76 8 -101 9 -14 18 -53 20 -91 2 -37 11 -86 19 -111 19 -56 19 -232 0 -373 -31 -225 -10 -404 62 -543 27 -53 63 -97 133 -167 81 -80 185 -162 165 -130 -3 6 1 7 9 4 9 -3 16 -12 16 -20 0 -8 5 -14 11 -14 5 0 7 5 4 10 -9 14 2 12 28 -4 12 -8 47 -17 77 -20 l55 -7 -38 33 c-40 35 -45 49 -24 67 21 16 157 14 186 -3 4 -3 74 -17 156 -32 120 -22 180 -28 302 -28 83 -1 154 2 158 6 4 4 10 27 12 53 4 32 2 45 -7 45 -9 0 -10 3 -1 14 16 19 -34 36 -104 36 -72 0 -115 10 -115 26 0 14 -14 19 -84 28 -21 3 -40 7 -43 9 -8 9 -12 47 -4 47 4 0 13 18 19 39 16 50 45 69 100 64 93 -9 221 54 349 171 33 31 66 56 72 56 6 0 11 7 11 15 0 8 7 15 15 15 33 0 63 -25 88 -74 l27 -53 148 -65 c165 -74 219 -90 209 -64 -4 9 -2 16 3 16 6 0 10 5 10 11 0 16 47 69 54 62 14 -14 4 14 -15 42 -11 17 -47 84 -79 150 -75 154 -143 235 -264 317 -146 100 -363 161 -563 158 -103 -1 -144 3 -133 14 5 5 -4 19 -21 33 -31 27 -38 53 -14 53 8 0 23 4 33 10 32 19 77 33 96 31 10 -2 15 2 12 7 -3 6 14 12 42 16 26 3 56 7 67 9 11 3 26 5 33 6 6 0 12 14 12 31 0 38 25 45 128 36 98 -9 149 -20 297 -63 66 -19 162 -43 213 -54 138 -29 179 -52 223 -124 22 -37 42 -60 53 -59 9 1 27 2 40 3 40 2 68 32 68 73 0 72 -67 293 -111 364 -11 18 -35 44 -55 59 -32 24 -43 27 -88 23 -45 -5 -83 4 -283 69 -246 79 -405 115 -579 132 -132 13 -165 13 -281 -4z m500 -800 c86 -18 169 -58 215 -102 l35 -34 -40 3 c-30 2 -40 -1 -40 -12 -1 -8 -7 -13 -15 -12 -8 2 -54 14 -103 27 -48 13 -112 27 -142 30 -50 7 -55 10 -55 32 0 13 -5 33 -10 44 -9 17 -7 19 17 19 22 0 25 2 13 10 -23 15 43 12 125 -5z" fill="#6c63ff"/>
<path d="M19920 25652 c0 -27 -25 -45 -65 -46 -47 -1 -61 -35 -58 -142 3 -103 45 -356 69 -411 20 -46 47 -58 110 -51 l29 3 -2 201 c-1 208 -11 309 -39 391 -19 55 -44 86 -44 55z" fill="#6c63ff"/>
<path d="M12376 24855 c-48 -24 -51 -47 -48 -392 1 -178 7 -333 12 -345 5 -13 9 -18 9 -11 1 8 10 9 33 2 53 -15 98 -11 105 9 4 9 10 19 14 22 11 8 43 387 43 517 1 69 5 113 11 113 6 0 15 8 22 19 10 15 7 21 -15 38 -15 11 -36 23 -47 28 -29 12 -115 12 -139 0z" fill="#6c63ff"/>
<path d="M19676 24679 c-13 -10 -31 -16 -39 -13 -20 7 -24 -18 -32 -177 -7 -137 -7 -138 48 -144 18 -3 48 -7 68 -10 35 -6 38 -5 48 27 14 45 31 154 31 205 0 23 -8 56 -17 75 -10 18 -19 34 -19 36 -1 1 -15 7 -32 12 -25 7 -36 4 -56 -11z" fill="#6c63ff"/>
<path d="M15740 24129 c-102 -17 -215 -60 -225 -87 -5 -14 38 -138 55 -155 4 -4 74 10 156 32 82 21 192 49 245 60 77 18 95 25 94 39 -4 33 -17 52 -37 52 -10 0 -17 4 -14 9 3 5 -10 21 -28 35 -31 23 -43 26 -113 25 -43 -1 -103 -5 -133 -10z" fill="#6c63ff"/>
<path d="M19107 20956 c-7 -16 -27 -18 -38 -3 -3 5 -9 -19 -13 -54 -4 -34 -17 -87 -28 -118 -32 -84 -154 -260 -236 -339 -18 -17 -22 -26 -13 -35 6 -6 11 -16 11 -21 0 -6 -5 -4 -10 4 -8 13 -13 12 -32 -7 -25 -26 -17 -43 12 -25 24 15 26 5 3 -20 -19 -21 -10 -36 11 -19 8 7 20 10 25 7 5 -4 11 8 13 26 2 27 8 33 28 35 25 3 25 3 3 -7 -23 -10 -34 -60 -13 -60 32 0 229 218 279 310 43 79 70 141 80 189 11 50 10 56 -14 98 -15 24 -31 41 -37 37 -5 -4 -14 -1 -18 6 -5 8 -9 7 -13 -4z" fill="#6c63ff"/>
<path d="M14289 20003 c-169 -190 -182 -204 -204 -226 -11 -11 -13 -16 -5 -12 10 6 9 1 -4 -13 -10 -12 -16 -28 -13 -37 4 -8 2 -15 -4 -15 -6 0 -9 -6 -6 -14 3 -7 0 -24 -7 -37 -7 -13 -15 -33 -19 -44 -6 -16 -3 -15 14 5 56 67 113 122 117 111 2 -6 21 -14 42 -17 36 -6 38 -8 34 -38 -14 -111 -25 -171 -54 -286 -26 -106 -32 -122 -61 -151 -16 -16 -33 -28 -37 -26 -15 10 -52 -12 -46 -28 3 -8 2 -15 -3 -15 -12 0 -33 44 -33 68 0 23 -40 58 -49 43 -4 -7 -12 -3 -21 9 -9 13 -26 20 -48 20 -34 0 -48 -9 -68 -45 -13 -23 -14 -12 20 -320 26 -235 42 -345 46 -315 1 8 3 20 5 25 1 6 3 23 3 38 1 16 6 26 11 23 5 -4 11 0 14 6 3 9 9 7 20 -7 32 -43 57 -68 63 -63 3 4 8 66 11 139 8 177 20 137 27 -88 6 -215 22 -311 91 -553 29 -102 70 -255 90 -340 43 -183 95 -384 100 -388 8 -9 46 22 60 48 11 22 24 31 53 35 66 10 98 33 128 91 15 30 32 54 36 54 4 0 1 -12 -7 -27 -17 -33 -11 -42 13 -20 10 10 21 17 25 17 15 0 97 63 92 71 -4 5 0 6 8 3 15 -5 37 34 37 66 0 31 -14 24 -92 -42 -39 -34 -69 -54 -65 -45 3 9 2 17 -4 17 -6 0 -8 3 -6 8 3 4 8 29 11 56 5 32 15 58 30 72 41 42 78 124 108 242 26 106 29 128 25 242 -7 203 -44 430 -127 790 -27 118 -56 258 -64 310 -21 132 -37 379 -36 540 1 74 1 140 1 145 -1 6 -11 12 -23 12 -13 1 -24 7 -26 13 -5 13 -32 13 -32 0 0 -5 -5 -10 -11 -10 -6 0 -9 7 -5 15 4 11 -1 15 -18 15 -17 0 -53 -33 -137 -127z" fill="#6c63ff"/>
<path d="M17867 19103 c-15 -30 -37 -114 -69 -263 -38 -182 -35 -426 8 -571 12 -39 23 -55 50 -71 75 -44 81 -120 29 -338 -19 -80 -34 -154 -34 -165 1 -17 2 -17 6 -2 6 21 23 23 23 1 0 -8 5 -12 10 -9 6 3 10 2 10 -4 0 -5 9 -9 21 -8 26 2 56 58 80 151 l18 69 -24 46 c-22 44 -24 58 -30 341 -5 260 -4 316 14 475 12 99 21 219 21 266 l0 87 -37 7 c-21 3 -48 9 -60 12 -16 4 -25 -2 -36 -24z" fill="#6c63ff"/>
<path d="M27708 14340 c-28 -29 -37 -60 -18 -60 6 0 10 -9 10 -20 0 -22 16 -27 23 -7 2 7 8 8 13 3 5 -5 4 -11 -3 -13 -15 -6 -18 -83 -3 -83 6 0 10 -17 10 -38 0 -21 7 -47 16 -58 15 -18 15 -18 9 10 -6 26 -4 28 10 16 13 -11 15 -10 10 2 -3 8 -1 25 5 39 10 24 10 24 5 -3 -4 -22 -2 -26 10 -22 19 8 19 15 1 39 -8 11 -12 26 -9 35 4 13 4 13 -7 0 -9 -12 -11 -10 -6 11 4 17 1 31 -8 38 -8 7 -12 21 -9 31 3 13 -1 22 -12 26 -12 5 -15 14 -11 30 4 15 2 24 -5 24 -6 0 -9 7 -5 15 7 20 6 19 -26 -15z" fill="#6c63ff"/>
<path d="M23399 4235 c-37 -51 -50 -57 -135 -60 -33 -1 -76 -9 -94 -19 -46 -22 -60 -20 -103 15 -33 27 -43 30 -75 24 -20 -4 -44 -11 -54 -16 -49 -26 -54 -295 -14 -709 35 -362 54 -480 78 -480 5 0 23 7 40 16 16 9 27 11 24 5 -4 -6 15 -1 41 10 26 11 99 34 162 50 114 28 267 92 258 106 -3 5 -17 35 -33 68 -29 59 -29 62 -28 230 1 133 8 218 33 392 18 123 33 262 34 310 l2 88 -32 -3 c-17 -2 -41 1 -52 7 -17 10 -24 5 -52 -34z" fill="#6c63ff"/>
<path d="M21645 2220 c3 -5 14 -10 23 -10 12 -1 10 -5 -8 -15 l-25 -14 25 -1 c14 -1 19 -4 12 -7 -10 -4 -10 -8 0 -21 11 -13 9 -15 -17 -10 -27 6 -28 5 -10 -8 19 -14 19 -14 -1 -15 -18 0 -18 -1 1 -9 l20 -9 -20 -1 c-35 -2 51 -34 265 -98 517 -154 598 -165 1190 -161 623 5 645 5 833 -4 l167 -8 0 25 c0 14 5 28 10 31 6 3 10 26 10 50 0 42 -1 43 -37 49 -91 13 -391 19 -958 21 -700 2 -706 2 -1028 97 -313 91 -442 128 -450 128 -5 0 -5 -4 -2 -10z" fill="#6c63ff"/>
<path d="M25015 1061 c-11 -11 -27 -21 -35 -23 -8 -2 -21 -9 -28 -15 -16 -16 -94 -17 -109 -2 -6 6 -68 13 -139 16 -71 2 -132 5 -135 6 -4 1 -27 -19 -52 -44 -26 -28 -37 -45 -26 -42 14 4 20 -4 29 -37 10 -36 14 -41 33 -36 25 6 37 -1 53 -29 10 -16 20 -19 60 -17 27 1 69 -1 94 -6 31 -6 49 -5 56 2 6 6 35 31 64 56 30 25 76 66 102 91 26 26 50 44 53 41 3 -3 5 9 5 26 0 38 0 38 -25 13z" fill="#6c63ff"/>
<path d="M21974 1055 c3 -8 1 -15 -4 -15 -5 0 -17 -13 -27 -30 -13 -23 -22 -28 -38 -24 -38 12 36 -45 161 -121 144 -89 363 -195 418 -203 27 -3 37 -2 32 6 -4 6 -1 20 5 30 10 17 8 25 -12 51 -54 71 -98 102 -277 197 -247 131 -271 141 -258 109z" fill="#6c63ff"/>
<path d="M23665 793 c-62 -7 -354 -33 -447 -39 -79 -5 -98 -4 -98 7 0 12 -2 12 -9 0 -6 -10 -23 -12 -67 -7 -82 9 -104 -8 -30 -24 l56 -11 0 -50 c0 -27 -4 -49 -9 -49 -5 0 -7 -9 -4 -20 3 -13 19 -24 45 -31 52 -14 249 3 446 38 127 23 176 26 362 27 l215 1 11 45 c7 28 17 46 27 48 31 6 17 22 -20 23 -21 1 -47 3 -58 5 -11 2 -66 6 -122 10 -77 5 -103 10 -103 20 0 11 -19 14 -82 13 -46 -1 -96 -4 -113 -6z" fill="#6c63ff"/>
<path d="M16820 375 c-19 -8 -28 -14 -20 -15 12 0 11 -3 -3 -11 -14 -8 -15 -14 -7 -24 9 -11 7 -23 -7 -52 -18 -37 -19 -42 -22 -64 0 -5 -5 -7 -11 -4 -21 13 -9 -13 25 -53 20 -22 46 -44 58 -47 12 -4 29 -16 37 -26 11 -14 19 -16 30 -8 13 9 12 10 -2 5 -10 -3 -18 -1 -18 4 0 6 18 10 40 10 22 0 40 4 40 8 0 4 25 34 56 65 58 61 59 63 31 130 -7 15 -15 27 -19 27 -4 0 -11 15 -16 33 l-8 32 -75 2 c-42 0 -89 -5 -109 -12z" fill="#6c63ff"/>
</g>
</svg>